G04 #@! TF.FileFunction,Copper,L1,Top,Signal*
%FSLAX46Y46*%
G04 Gerber Fmt 4.6, Leading zero omitted, Abs format (unit mm)*
G04 Created by KiCad (PCBNEW 4.0.5) date Saturday, 16 December 2017 'PMt' 23:42:59*
%MOMM*%
%LPD*%
G01*
G04 APERTURE LIST*
%ADD10C,0.150000*%
%ADD11C,2.400000*%
%ADD12O,2.400000X2.400000*%
%ADD13C,3.000000*%
%ADD14C,4.064000*%
%ADD15C,1.600000*%
%ADD16O,1.600000X1.600000*%
%ADD17R,1.600000X1.600000*%
%ADD18R,1.800000X1.800000*%
%ADD19O,1.800000X1.800000*%
%ADD20R,2.200000X2.200000*%
%ADD21O,2.200000X2.200000*%
%ADD22O,1.200000X1.600000*%
%ADD23O,1.200000X1.200000*%
%ADD24C,1.143000*%
%ADD25R,2.000000X2.000000*%
%ADD26C,2.000000*%
%ADD27C,0.300000*%
%ADD28C,1.016000*%
%ADD29C,0.762000*%
%ADD30C,1.000000*%
%ADD31C,0.254000*%
G04 APERTURE END LIST*
D10*
D11*
X169672000Y-92456000D03*
D12*
X169672000Y-112776000D03*
D13*
X175895000Y-104140000D03*
D14*
X158432500Y-66992500D03*
D15*
X146050000Y-72390000D03*
D16*
X146050000Y-59690000D03*
D17*
X161195000Y-99997000D03*
D16*
X153575000Y-92377000D03*
X161195000Y-97457000D03*
X153575000Y-94917000D03*
X161195000Y-94917000D03*
X153575000Y-97457000D03*
X161195000Y-92377000D03*
X153575000Y-99997000D03*
D18*
X164465000Y-92456000D03*
D19*
X164465000Y-100076000D03*
D18*
X137287000Y-56578500D03*
D19*
X144907000Y-56578500D03*
D20*
X147193000Y-119380000D03*
D21*
X147193000Y-129540000D03*
D22*
X166370000Y-61341000D03*
D23*
X164573949Y-62084949D03*
X163830000Y-63881000D03*
X164573949Y-65677051D03*
X166370000Y-66421000D03*
X168166051Y-65677051D03*
X168910000Y-63881000D03*
X168166051Y-62084949D03*
D15*
X138303000Y-82931000D03*
D16*
X138303000Y-70231000D03*
D15*
X165100000Y-111760000D03*
D16*
X152400000Y-111760000D03*
D15*
X143446500Y-140144500D03*
X144746500Y-135144500D03*
D20*
X138430000Y-122047000D03*
D21*
X138430000Y-132207000D03*
D18*
X141732000Y-59944000D03*
D19*
X141732000Y-62484000D03*
X141732000Y-65024000D03*
D15*
X138430000Y-64944000D03*
X138430000Y-59944000D03*
X165147000Y-103632000D03*
X160147000Y-103632000D03*
X144526000Y-109982000D03*
X144526000Y-114982000D03*
X134366000Y-61595000D03*
X134366000Y-56595000D03*
X152146000Y-103632000D03*
X157146000Y-103632000D03*
X149500000Y-95032000D03*
X149500000Y-100032000D03*
X165100000Y-107950000D03*
D16*
X152400000Y-107950000D03*
D24*
X143256000Y-84328000D03*
X165100000Y-114046000D03*
D14*
X162687000Y-144780000D03*
X136017000Y-144653000D03*
X149733000Y-144780000D03*
X173990000Y-144907000D03*
D15*
X146177000Y-97155000D03*
D16*
X146177000Y-84455000D03*
D11*
X155003500Y-87058500D03*
D12*
X175323500Y-87058500D03*
D11*
X140716000Y-89662000D03*
D12*
X140716000Y-109982000D03*
D11*
X153479500Y-127063500D03*
D12*
X173799500Y-127063500D03*
D11*
X173863000Y-133540500D03*
D12*
X153543000Y-133540500D03*
D11*
X153479500Y-120586500D03*
D12*
X173799500Y-120586500D03*
D13*
X175895000Y-109220000D03*
D14*
X174307500Y-60642500D03*
D25*
X132651500Y-133985000D03*
D26*
X132651500Y-136525000D03*
D17*
X151257000Y-114848000D03*
D15*
X151257000Y-117348000D03*
D17*
X138049000Y-115824000D03*
D15*
X135549000Y-115824000D03*
D27*
X168910000Y-63881000D02*
X175323500Y-70294500D01*
X172720000Y-100965000D02*
X175895000Y-104140000D01*
X172720000Y-85217000D02*
X172720000Y-100965000D01*
X175323500Y-82613500D02*
X172720000Y-85217000D01*
X175323500Y-70294500D02*
X175323500Y-82613500D01*
D28*
X157480000Y-94107000D02*
X157480000Y-101512000D01*
X160063630Y-92377000D02*
X160015630Y-92329000D01*
X161195000Y-92377000D02*
X160063630Y-92377000D01*
X160015630Y-92329000D02*
X159258000Y-92329000D01*
X159258000Y-92329000D02*
X157480000Y-94107000D01*
X157480000Y-101512000D02*
X160000000Y-104032000D01*
D29*
X173736000Y-144272000D02*
X173736000Y-144780000D01*
X138303000Y-82931000D02*
X138303000Y-92519500D01*
X138303000Y-92519500D02*
X140815500Y-95032000D01*
X140815500Y-95032000D02*
X149500000Y-95032000D01*
D30*
X140716000Y-89662000D02*
X164465000Y-89662000D01*
D27*
X175895000Y-109220000D02*
X171704000Y-105029000D01*
X162052000Y-68453000D02*
X171196000Y-77597000D01*
X162052000Y-67818000D02*
X162052000Y-68453000D01*
X162052000Y-65659000D02*
X162052000Y-67818000D01*
X162052000Y-65659000D02*
X163830000Y-63881000D01*
X171704000Y-78105000D02*
X171196000Y-77597000D01*
X171704000Y-105029000D02*
X171704000Y-78105000D01*
D30*
X164465000Y-92456000D02*
X164465000Y-89662000D01*
X164465000Y-89662000D02*
X164465000Y-82931000D01*
D29*
X164465000Y-82931000D02*
X164211000Y-82677000D01*
X152400000Y-70866000D02*
X164211000Y-82677000D01*
X164211000Y-82677000D02*
X164592000Y-83058000D01*
D30*
X167767000Y-92583000D02*
X167894000Y-92456000D01*
X167894000Y-92456000D02*
X169672000Y-92456000D01*
X164465000Y-92456000D02*
X167640000Y-92456000D01*
X167640000Y-92456000D02*
X168275000Y-92456000D01*
X165100000Y-107950000D02*
X167767000Y-105283000D01*
X167767000Y-105283000D02*
X167767000Y-92583000D01*
D29*
X167767000Y-92583000D02*
X167640000Y-92456000D01*
X164581000Y-83069000D02*
X164592000Y-83058000D01*
X164465000Y-92456000D02*
X164465000Y-90794000D01*
X163830000Y-63881000D02*
X153797000Y-63881000D01*
X153797000Y-63881000D02*
X152400000Y-65278000D01*
X152400000Y-65278000D02*
X152400000Y-70866000D01*
X140335000Y-133985000D02*
X143587000Y-133985000D01*
X143587000Y-133985000D02*
X144746500Y-135144500D01*
X132651500Y-133985000D02*
X140335000Y-133985000D01*
X132651500Y-136525000D02*
X139827000Y-136525000D01*
X139827000Y-136525000D02*
X143446500Y-140144500D01*
D28*
X141732000Y-59944000D02*
X141732000Y-52959000D01*
X166370000Y-52705000D02*
X166370000Y-61341000D01*
X164846000Y-51181000D02*
X166370000Y-52705000D01*
X143510000Y-51181000D02*
X164846000Y-51181000D01*
X141732000Y-52959000D02*
X143510000Y-51181000D01*
D29*
X166370000Y-61341000D02*
X166370000Y-61141000D01*
D28*
X164573949Y-62084949D02*
X155956000Y-53467000D01*
X148018500Y-53467000D02*
X144907000Y-56578500D01*
X155956000Y-53467000D02*
X148018500Y-53467000D01*
D31*
G36*
X170561000Y-138557000D02*
X156591000Y-138557000D01*
X156591000Y-115697000D01*
X170561000Y-115697000D01*
X170561000Y-138557000D01*
X170561000Y-138557000D01*
G37*
X170561000Y-138557000D02*
X156591000Y-138557000D01*
X156591000Y-115697000D01*
X170561000Y-115697000D01*
X170561000Y-138557000D01*
M02*
