M48
;DRILL file {KiCad 4.0.5} date Saturday, 16 December 2017 'PMt' 23:42:54
;FORMAT={-:-/ absolute / inch / decimal}
FMAT,2
INCH,TZ
T1C0.024
T2C0.025
T3C0.028
T4C0.031
T5C0.035
T6C0.037
T7C0.039
T8C0.043
T9C0.047
T10C0.059
T11C0.120
%
G90
G05
M72
T1
X5.6475Y-5.5175
X5.6987Y-5.3206
T2
X5.64Y-3.32
X6.5Y-4.49
T3
X6.45Y-2.515
X6.4793Y-2.4443
X6.4793Y-2.5857
X6.55Y-2.415
X6.55Y-2.615
X6.6207Y-2.4443
X6.6207Y-2.5857
X6.65Y-2.515
T4
X5.29Y-2.2281
X5.29Y-2.425
X5.3366Y-4.56
X5.435Y-4.56
X5.445Y-2.765
X5.445Y-3.265
X5.45Y-2.36
X5.45Y-2.5569
X5.69Y-4.33
X5.69Y-4.5269
X5.75Y-2.35
X5.75Y-2.85
X5.755Y-3.325
X5.755Y-3.825
X5.8858Y-3.7414
X5.8858Y-3.9383
X5.955Y-4.5216
X5.955Y-4.62
X5.99Y-4.08
X6.Y-4.25
X6.Y-4.4
X6.0463Y-3.6369
X6.0463Y-3.7369
X6.0463Y-3.8369
X6.0463Y-3.9369
X6.1869Y-4.08
X6.305Y-4.08
X6.3463Y-3.6369
X6.3463Y-3.7369
X6.3463Y-3.8369
X6.3463Y-3.9369
X6.5Y-4.25
X6.5Y-4.4
X6.5019Y-4.08
T5
X5.405Y-2.2275
X5.705Y-2.2275
X6.475Y-3.64
X6.475Y-3.94
T6
X5.2225Y-5.275
X5.2225Y-5.375
T7
X5.58Y-2.36
X5.58Y-2.46
X5.58Y-2.56
T8
X5.45Y-4.805
X5.45Y-5.205
X5.795Y-4.7
X5.795Y-5.1
T9
X5.54Y-3.53
X5.54Y-4.33
X6.0425Y-4.7475
X6.0425Y-5.0025
X6.045Y-5.2575
X6.1025Y-3.4275
X6.68Y-3.64
X6.68Y-4.44
X6.8425Y-4.7475
X6.8425Y-5.0025
X6.845Y-5.2575
X6.9025Y-3.4275
T10
X6.925Y-4.1
X6.925Y-4.3
T11
X5.355Y-5.695
X5.895Y-5.7
X6.2375Y-2.6375
X6.405Y-5.7
X6.85Y-5.705
X6.8625Y-2.3875
T0
M30
